# xmcd
#
# Track frame offsets: 
#        150
#        82440
#        150070
#        221555
#        250277
#
# Disc length: 4471 seconds
#
# Revision: 0
# Processed by: cddbd v1.5.2PL0 Copyright (c) Steve Scherf et al.
# Submitted via: ExactAudioCopy v0.99pb4
#
DISCID=3b117505
DTITLE=Osaka Philharmonic Orchestra and Takashi Asahina - Beethoven Symp
DTITLE=hony No.9 "Choral"
DYEAR=2000
DGENRE=Classical
TTITLE0=Beethoven Symphony No. 9 in D minor op. 125 "Choral" - I. Alle
TTITLE0=gro ma non troppo un poco maestoso
TTITLE1=Beethoven Symphony No. 9 in D minor op. 125 "Choral" - II. Mol
TTITLE1=to vivace, scherzo
TTITLE2=Beethoven Symphony No. 9 in D minor op. 125 "Choral" - III. Ad
TTITLE2=agio molto e cantabile
TTITLE3=Beethoven Symphony No. 9 in D minor op. 125 "Choral" - IV. Pre
TTITLE3=sto recitativo
TTITLE4=Beethoven Symphony No. 9 in D minor op. 125 "Choral" - V. Pres
TTITLE4=to - Allegro assai final chorus from schiller's "An die freude
TTITLE4="
EXTD=
EXTT0=
EXTT1=
EXTT2=
EXTT3=
EXTT4=
PLAYORDER=
